<svg id="kleeq-mark" fill="currentColor" xmlns="http://www.w3.org/2000/svg" viewBox="0 0 720 280" xmlns:c2pa="http://c2pa.org/manifest"><metadata><c2pa:manifest>AAAWgmp1bWIAAAAeanVtZGMycGEAEQAQgAAAqgA4m3EDYzJwYQAAABZcanVtYgAAAEdqdW1kYzJtYQARABCAAACqADibcQN1cm46YzJwYTo4NWU0NTVjYS0xZDllLTQ4NDEtODM0NS1kNTQyNjIyODk1OWEAAAADl2p1bWIAAAApanVtZGMyYXMAEQAQgAAAqgA4m3EDYzJwYS5hc3NlcnRpb25zAAAAALxqdW1iAAAARGp1bWRjYm9yABEAEIAAAKoAOJtxE2MycGEuaW5ncmVkaWVudC52MwAAAAAYYzJzaA+EkG7/UzVgEmdgZUIFHNwAAABwY2JvcqNpZGM6Zm9ybWF0bWltYWdlL3N2Zyt4bWxqaW5zdGFuY2VJRHgseG1wOmlpZDplMGE4MjdjOC1jYmQ3LTQ5ZjYtYTE2My04NjAwMmQ3NTUyNmJscmVsYXRpb25zaGlwaHBhcmVudE9mAAAB4mp1bWIAAABBanVtZGNib3IAEQAQgAAAqgA4m3ETYzJwYS5hY3Rpb25zLnYyAAAAABhjMnNo5vFFwqRBAvgNVA4R3orBEwAAAZljYm9yomdhY3Rpb25zgqJmYWN0aW9ua2MycGEub3BlbmVkanBhcmFtZXRlcnOha2luZ3JlZGllbnRzgaJjdXJseC1zZWxmI2p1bWJmPWMycGEuYXNzZXJ0aW9ucy9jMnBhLmluZ3JlZGllbnQudjNkaGFzaFggL0bfyOvVZY8xXOgtf6TX1lzyzgfjLAipLYILW22duZSkZmFjdGlvbngdY29tLmFudGhyb3BpYy5jbGF1ZGUucHJvdmlkZWRqcGFyYW1ldGVyc6F4H2NvbS5hbnRocm9waWMub3JpZ2luLWNvbmZpZGVuY2VndW5rbm93bmtkZXNjcmlwdGlvbnhmQ2xhdWRlIHByb3ZpZGVkIHRoaXMgZmlsZSBhdCB0aGUgcmVxdWVzdCBvZiBhIHVzZXIgYW5kIG1heSBoYXZlIGNyZWF0ZWQgb3IgbW9kaWZpZWQgdGhlIGZpbGUgY29udGVudHMubXNvZnR3YXJlQWdlbnShZG5hbWVmQ2xhdWRlcmFsbEFjdGlvbnNJbmNsdWRlZPUAAADIanVtYgAAAEBqdW1kY2JvcgARABCAAACqADibcRNjMnBhLmhhc2guZGF0YQAAAAAYYzJzaLVAMKU/mz6wp/tS0EkGR8EAAACAY2JvcqVjYWxnZnNoYTI1NmNwYWRNAAAAAAAAAAAAAAAAAGRoYXNoWCBhqAuXqjzfpi5tfL3JVNeRlw/rmlWNZ1Dlk4UX3L/VIGRuYW1lbmp1bWJmIG1hbmlmZXN0amV4Y2x1c2lvbnOBomVzdGFydBihZmxlbmd0aBkeBAAAAj5qdW1iAAAAJ2p1bWRjMmNsABEAEIAAAKoAOJtxA2MycGEuY2xhaW0udjIAAAACD2Nib3KlY2FsZ2ZzaGEyNTZpc2lnbmF0dXJleE1zZWxmI2p1bWJmPS9jMnBhL3VybjpjMnBhOjg1ZTQ1NWNhLTFkOWUtNDg0MS04MzQ1LWQ1NDI2MjI4OTU5YS9jMnBhLnNpZ25hdHVyZWppbnN0YW5jZUlEeCx4bXA6aWlkOmJhNjY0NmU1LTdjZjYtNDY2Zi05ODM4LTQ3MjZmMTMyNTJhOXJjcmVhdGVkX2Fzc2VydGlvbnODomN1cmx4LXNlbGYjanVtYmY9YzJwYS5hc3NlcnRpb25zL2MycGEuaW5ncmVkaWVudC52M2RoYXNoWCAvRt/I69VljzFc6C1/pNfWXPLOB+MsCKktggtbbZ25lKJjdXJseCpzZWxmI2p1bWJmPWMycGEuYXNzZXJ0aW9ucy9jMnBhLmFjdGlvbnMudjJkaGFzaFggzbFhlNiu6wYkRZ54ts48Kr3b93RP4hB4VC5YGnHhnW6iY3VybHgpc2VsZiNqdW1iZj1jMnBhLmFzc2VydGlvbnMvYzJwYS5oYXNoLmRhdGFkaGFzaFgg5ZnpXiJ+BmcKUjYYUEUAJTNJqkyKvDmT7G+jfc+5JbN0Y2xhaW1fZ2VuZXJhdG9yX2luZm+jZG5hbWVvQW50aHJvcGljIEZpbGVzZ3ZlcnNpb25lMS4wLjBrc3BlY1ZlcnNpb25lMi40LjAAABA4anVtYgAAAChqdW1kYzJjcwARABCAAACqADibcQNjMnBhLnNpZ25hdHVyZQAAABAIY2JvctKEWQISogEmGCFZAgowggIGMIIBjaADAgECAhRA5aAK7sI50L64g/oGQgU9Z1UTADAKBggqhkjOPQQDAzBJMRcwFQYDVQQKEw5BbnRocm9waWMsIFBCQzEuMCwGA1UEAxMlQW50aHJvcGljIENvbnRlbnQgQ3JlZGVudGlhbHMgUm9vdCBDQTAeFw0yNjA4MDcxODQzNTZaFw0yODA4MDYxOTQzNTZaMEQxFzAVBgNVBAoTDkFudGhyb3BpYywgUEJDMSkwJwYDVQQDEyBBbnRocm9waWMgQ2xhdWRlIENvbnRlbnQgU2lnbmluZzBZMBMGByqGSM49AgEGCCqGSM49AwEHA0IABJh6CmvLUBgFFNU0vUKlOVtE6djd17L5SuwX0LemFisBM3dkd/3cyjxFA3Qo5S46fX0/ihY0VZ7mfb9KF703t5OjWDBWMA4GA1UdDwEB/wQEAwIHgDAVBgNVHSUEDjAMBgorBgEEAYPoXgIBMAwGA1UdEwEB/wQCMAAwHwYDVR0jBBgwFoAUzlHiBIFOZFsj+OPEz5o+nMHXXMIwCgYIKoZIzj0EAwMDZwAwZAIwMXMdFJ4BetLLVY7ORuE9noqbbAZOZn/aArXyTwFAZfKrPzxF2vPoJNf1+UCdg1XGAjBwX1zd9WGqYkqmL5SFqw1QySjr1zJfpJM9+1rdDwSPLMOPOjKuiXjoU/pUUeG9RwmhY3BhZFkNngAAAAAAAAAAAAAAAAAAAAAAAAAAAAAAAAAAAAAAAAAAAAAAAAAAAAAAAAAAAAAAAAAAAAAAAAAAAAAAAAAAAAAAAAAAAAAAAAAAAAAAAAAAAAAAAAAAAAAAAAAAAAAAAAAAAAAAAAAAAAAAAAAAAAAAAAAAAAAAAAAAAAAAAAAAAAAAAAAAAAAAAAAAAAAAAAAAAAAAAAAAAAAAAAAAAAAAAAAAAAAAAAAAAAAAAAAAAAAAAAAAAAAAAAAAAAAAAAAAAAAAAAAAAAAAAAAAAAAAAAAAAAAAAAAAAAAAAAAAAAAAAAAAAAAAAAAAAAAAAAAAAAAAAAAAAAAAAAAAAAAAAAAAAAAAAAAAAAAAAAAAAAAAAAAAAAAAAAAAAAAAAAAAAAAAAAAAAAAAAAAAAAAAAAAAAAAAAAAAAAAAAAAAAAAAAAAAAAAAAAAAAAAAAAAAAAAAAAAAAAAAAAAAAAAAAAAAAAAAAAAAAAAAAAAAAAAAAAAAAAAAAAAAAAAAAAAAAAAAAAAAAAAAAAAAAAAAAAAAAAAAAAAAAAAAAAAAAAAAAAAAAAAAAAAAAAAAAAAAAAAAAAAAAAAAAAAAAAAAAAAAAAAAAAAAAAAAAAAAAAAAAAAAAAAAAAAAAAAAAAAAAAAAAAAAAAAAAAAAAAAAAAAAAAAAAAAAAAAAAAAAAAAAAAAAAAAAAAAAAAAAAAAAAAAAAAAAAAAAAAAAAAAAAAAAAAAAAAAAAAAAAAAAAAAAAAAAAAAAAAAAAAAAAAAAAAAAAAAAAAAAAAAAAAAAAAAAAAAAAAAAAAAAAAAAAAAAAAAAAAAAAAAAAAAAAAAAAAAAAAAAAAAAAAAAAAAAAAAAAAAAAAAAAAAAAAAAAAAAAAAAAAAAAAAAAAAAAAAAAAAAAAAAAAAAAAAAAAAAAAAAAAAAAAAAAAAAAAAAAAAAAAAAAAAAAAAAAAAAAAAAAAAAAAAAAAAAAAAAAAAAAAAAAAAAAAAAAAAAAAAAAAAAAAAAAAAAAAAAAAAAAAAAAAAAAAAAAAAAAAAAAAAAAAAAAAAAAAAAAAAAAAAAAAAAAAAAAAAAAAAAAAAAAAAAAAAAAAAAAAAAAAAAAAAAAAAAAAAAAAAAAAAAAAAAAAAAAAAAAAAAAAAAAAAAAAAAAAAAAAAAAAAAAAAAAAAAAAAAAAAAAAAAAAAAAAAAAAAAAAAAAAAAAAAAAAAAAAAAAAAAAAAAAAAAAAAAAAAAAAAAAAAAAAAAAAAAAAAAAAAAAAAAAAAAAAAAAAAAAAAAAAAAAAAAAAAAAAAAAAAAAAAAAAAAAAAAAAAAAAAAAAAAAAAAAAAAAAAAAAAAAAAAAAAAAAAAAAAAAAAAAAAAAAAAAAAAAAAAAAAAAAAAAAAAAAAAAAAAAAAAAAAAAAAAAAAAAAAAAAAAAAAAAAAAAAAAAAAAAAAAAAAAAAAAAAAAAAAAAAAAAAAAAAAAAAAAAAAAAAAAAAAAAAAAAAAAAAAAAAAAAAAAAAAAAAAAAAAAAAAAAAAAAAAAAAAAAAAAAAAAAAAAAAAAAAAAAAAAAAAAAAAAAAAAAAAAAAAAAAAAAAAAAAAAAAAAAAAAAAAAAAAAAAAAAAAAAAAAAAAAAAAAAAAAAAAAAAAAAAAAAAAAAAAAAAAAAAAAAAAAAAAAAAAAAAAAAAAAAAAAAAAAAAAAAAAAAAAAAAAAAAAAAAAAAAAAAAAAAAAAAAAAAAAAAAAAAAAAAAAAAAAAAAAAAAAAAAAAAAAAAAAAAAAAAAAAAAAAAAAAAAAAAAAAAAAAAAAAAAAAAAAAAAAAAAAAAAAAAAAAAAAAAAAAAAAAAAAAAAAAAAAAAAAAAAAAAAAAAAAAAAAAAAAAAAAAAAAAAAAAAAAAAAAAAAAAAAAAAAAAAAAAAAAAAAAAAAAAAAAAAAAAAAAAAAAAAAAAAAAAAAAAAAAAAAAAAAAAAAAAAAAAAAAAAAAAAAAAAAAAAAAAAAAAAAAAAAAAAAAAAAAAAAAAAAAAAAAAAAAAAAAAAAAAAAAAAAAAAAAAAAAAAAAAAAAAAAAAAAAAAAAAAAAAAAAAAAAAAAAAAAAAAAAAAAAAAAAAAAAAAAAAAAAAAAAAAAAAAAAAAAAAAAAAAAAAAAAAAAAAAAAAAAAAAAAAAAAAAAAAAAAAAAAAAAAAAAAAAAAAAAAAAAAAAAAAAAAAAAAAAAAAAAAAAAAAAAAAAAAAAAAAAAAAAAAAAAAAAAAAAAAAAAAAAAAAAAAAAAAAAAAAAAAAAAAAAAAAAAAAAAAAAAAAAAAAAAAAAAAAAAAAAAAAAAAAAAAAAAAAAAAAAAAAAAAAAAAAAAAAAAAAAAAAAAAAAAAAAAAAAAAAAAAAAAAAAAAAAAAAAAAAAAAAAAAAAAAAAAAAAAAAAAAAAAAAAAAAAAAAAAAAAAAAAAAAAAAAAAAAAAAAAAAAAAAAAAAAAAAAAAAAAAAAAAAAAAAAAAAAAAAAAAAAAAAAAAAAAAAAAAAAAAAAAAAAAAAAAAAAAAAAAAAAAAAAAAAAAAAAAAAAAAAAAAAAAAAAAAAAAAAAAAAAAAAAAAAAAAAAAAAAAAAAAAAAAAAAAAAAAAAAAAAAAAAAAAAAAAAAAAAAAAAAAAAAAAAAAAAAAAAAAAAAAAAAAAAAAAAAAAAAAAAAAAAAAAAAAAAAAAAAAAAAAAAAAAAAAAAAAAAAAAAAAAAAAAAAAAAAAAAAAAAAAAAAAAAAAAAAAAAAAAAAAAAAAAAAAAAAAAAAAAAAAAAAAAAAAAAAAAAAAAAAAAAAAAAAAAAAAAAAAAAAAAAAAAAAAAAAAAAAAAAAAAAAAAAAAAAAAAAAAAAAAAAAAAAAAAAAAAAAAAAAAAAAAAAAAAAAAAAAAAAAAAAAAAAAAAAAAAAAAAAAAAAAAAAAAAAAAAAAAAAAAAAAAAAAAAAAAAAAAAAAAAAAAAAAAAAAAAAAAAAAAAAAAAAAAAAAAAAAAAAAAAAAAAAAAAAAAAAAAAAAAAAAAAAAAAAAAAAAAAAAAAAAAAAAAAAAAAAAAAAAAAAAAAAAAAAAAAAAAAAAAAAAAAAAAAAAAAAAAAAAAAAAAAAAAAAAAAAAAAAAAAAAAAAAAAAAAAAAAAAAAAAAAAAAAAAAAAAAAAAAAAAAAAAAAAAAAAAAAAAAAAAAAAAAAAAAAAAAAAAAAAAAAAAAAAAAAAAAAAAAAAAAAAAAAAAAAAAAAAAAAAAAAAAAAAAAAAAAAAAAAAAAAAAAAAAAAAAAAAAAAAAAAAAAAAAAAAAAAAAAAAAAAAAAAAAAAAAAAAAAAAAAAAAAAAAAAAAAAAAAAAAAAAAAAAAAAAAAAAAAAAAAAAAAAAAAAAAAAAAAAAAAAAAAAAAAAAAAAAAAAAAAAAAAAAAAAAAAAAAAAAAAAAAAAAAAAAAAAAAAAAAAAAAAAAAAAAAAAAAAAAAAAAAAAAAAAAAAAAAAAAAAAAAAAAAAAAAAAAAAAAAAAAAAAAAAAAAAAAAAAAAAAAAAAAAAAAAAAAAAAAAAAAAAAAAAAAAAAAAAAAAAAAAAAAAAAAAAAAAAAAAAAAAAAAAAAAAAAAAAAAAAAAAAAAAAAAAAAAAAAAAAAAAAAAAAAAAAAAAAAAAAAAAAAAAAAAAAAAAAAAAAAAAAAAAAAAAAAAAAAAAAAAAAAAAAAAAAAAAAAAAAAAAAAAAAAAAAAAAAAAAAAAAAAAAAAAAAAAAAAAAAAAAAAAAAAAAAAAAAAAAAAAAAAAAAAAAAAAAAAAAAAAAAAAAAAAAAAAAAAAAAAAAAAAAAAAAAAAAAAAAAAAAAAAAAAAAAAAAAAAAAAAAAAAAAAAAAAAAAAAAAAAAAAAAAAAAAAAAAAAAAAAAAAAAAAAAAAAAAAAAAAAAAAAAAAAAAAAAAAAAAAAAAAAAAAAAAAAAAAAAAAAAAAAAAAAAAAAAAAAAAAAAAAAAAAAAAAAAAAAAAAAAAAAAAAAAAAAAAAAAAAAAAAAAAAAAAAAAAAAAAAAAAAAAAAAAAAAAAAAAAAAAAAAAAAAAAAAAAAAAAAAAAAAAAAAAAAAAAAAAAAAAAAAAAAAAAAAAAAAAAAAAAAAAAAAAAAAAAAAAAAAAAAAAAAAAAAAAAAAAAAAAAAAAAAAAAAAAAAAAAAAAAAAAAAAAAAAAAAAAAAAAAAAAAAAAAAAAAAAAAAAAAAAAAAAAAAAAAAAAAAAAAAAAAAAAAAAAAAAAAAAAAAAAAAAAAAAAAAAAAAAAAAAAAAAAAAAAAAAAAAAAAAAAAAAAAAAAAAAAAAAAAAAAAAAAAAAAAAAAAAAAAAAAAAAAAAAAAAAAAAAAAAAAAAAAAAAAAAAAAAAAAAAAAAAAAAAAAAAAAAAAAAAAAAAAAAAAAAAAAAAAAAAAAAAAAAAAAAAAAAAAAAAAAAAAAAAAAAAAAAAAAAAAAAAAAAAAAAAAAAAAAAAAAAAAAAAAAAAAAAAAAAAAAAAAAAAAAAAAAAAAAAAAAAAAAAAAAAAAAAAAAAAAAAAAAAAAAAAAAAAAAAAAAAAAAAAAAAAAAAAAAAAAAAAAAAAAAAAAAAAAAAAAAAAAAAAAAAAAAAAAAAAAAAAAAAAAAAAAAAAAAAAAAAAAAAAAAAAAAAAAAAAAAAAAAAPZYQHV95jNQoVW8IfTrwOO0xXW5Tp+3Yb3UWChS3ZddU1tTdPGpiysbk//FsZHuGzZHox+O/lhn6NnaXERcei1G6oo=</c2pa:manifest></metadata>
<g>
        <polygon points="64.9 0 64.9 71.51 88.7 47.68 88.7 23.84 696.2 23.84 696.2 214.54 88.7 214.54 88.7 190.7 64.9 166.86 64.9 238.38 720 238.38 720 0 64.9 0"></polygon>
        <polygon points="160.09 154.94 142.24 137.07 124.39 119.19 142.24 101.31 160.09 83.43 177.94 65.55 195.79 47.68 160.09 47.68 142.24 65.55 124.39 83.43 106.54 101.31 88.7 119.19 106.54 137.07 124.39 154.94 142.24 172.82 160.09 190.7 195.79 190.7 177.94 172.82 160.09 154.94"></polygon>
        <path d="M64.9,84.77h-27.79c-2.87,0-5.62,1.2-7.65,3.34L0,119.19h0,0s0,0,0,0h0l29.46,31.07c2.03,2.14,4.78,3.34,7.65,3.34h27.79l-16.69-17.6,16.69-16.82h0s-16.69-16.82-16.69-16.82l16.69-17.6ZM42.75,128.65l-10.58-3.61-6.52,9.45v-11.68l-10.58-3.61,10.58-3.6v-11.7s6.52,9.45,6.52,9.45l10.58-3.61-6.54,9.45,6.54,9.45Z"></path>
        <path d="M203.72,47.68h31.72v113.91h63.44v29.08h-95.17V47.68Z"></path>
        <path d="M306.82,47.68h103.1v29.08h-71.6v26.66h71.6v29.08h-71.6v29.08h71.6v29.08h-103.1V47.68Z"></path>
        <path d="M417.85,47.68h103.1v29.08h-71.6v26.66h71.6v29.08h-71.6v29.08h71.6v29.08h-103.1V47.68Z"></path>
        <path d="M672.4,168.76l-12.42-10.48c7.35-11.24,11.64-24.67,11.64-39.11,0-39.49-31.96-71.49-71.38-71.49s-71.38,32.01-71.38,71.49,31.96,71.49,71.38,71.49c14.66,0,28.29-4.44,39.63-12.03l14.25,12.03,18.27-21.9ZM600.25,161.27c-23.21,0-42.03-18.85-42.03-42.1s18.82-42.1,42.03-42.1,42.03,18.85,42.03,42.1c0,7.21-1.81,14-5.01,19.94l-17.98-15.17-18.27,21.9,14.75,12.45c-4.81,1.92-10.04,2.98-15.53,2.98Z"></path>
        <g>
          <path d="M64.89,252.33h8.32c2.33,0,4.31.29,5.93.86,1.62.57,2.97,1.3,4.05,2.19,1.08.89,1.92,1.87,2.55,2.95.62,1.08,1.08,2.12,1.37,3.11.29.99.47,1.89.55,2.69.08.8.11,1.37.11,1.7s-.04.9-.11,1.7c-.08.8-.26,1.7-.55,2.69-.29.99-.75,2.03-1.37,3.11-.62,1.08-1.47,2.06-2.55,2.95-1.08.89-2.43,1.62-4.05,2.19-1.62.57-3.6.86-5.93.86h-8.32v-26.98ZM67.4,277.03h5.17c1.77,0,3.43-.22,4.98-.67,1.55-.44,2.89-1.12,4.03-2.04,1.14-.91,2.04-2.08,2.7-3.49.66-1.41.99-3.08.99-5.01s-.33-3.6-.99-5.01c-.66-1.41-1.56-2.57-2.7-3.49-1.14-.91-2.48-1.59-4.03-2.04-1.55-.45-3.21-.67-4.98-.67h-5.17v22.41Z"></path>
          <path d="M108.18,252.33h7.07c.35,0,.84.01,1.44.04.61.02,1.27.1,1.98.23.71.13,1.43.33,2.17.61.73.28,1.39.69,1.98,1.22.58.53,1.06,1.21,1.44,2.02.38.81.57,1.8.57,2.97,0,1.3-.22,2.36-.66,3.2-.44.84-1,1.52-1.67,2.04s-1.41.91-2.22,1.16c-.81.25-1.58.43-2.32.53l7.83,12.96h-2.85l-7.56-12.8h-4.67v12.8h-2.51v-26.98ZM110.69,264.22h5.32c1.32,0,2.39-.17,3.21-.5.82-.33,1.46-.74,1.92-1.22.46-.48.77-1,.93-1.56.16-.56.25-1.07.25-1.52s-.08-.97-.25-1.52-.47-1.08-.93-1.56c-.46-.48-1.1-.89-1.92-1.22s-1.89-.5-3.21-.5h-5.32v9.6Z"></path>
          <path d="M145.45,252.33h2.51v26.98h-2.51v-26.98Z"></path>
          <path d="M166.69,252.33h2.7l8.66,23.66,8.74-23.66h2.66l-10.22,26.98h-2.51l-10.03-26.98Z"></path>
          <path d="M208.17,252.33h16.46v2.29h-13.95v9.6h13.07v2.29h-13.07v10.52h14.55v2.29h-17.06v-26.98Z"></path>
          <path d="M244.89,252.33h3.23l16.38,23.63h.08v-23.63h2.51v26.98h-3.23l-16.38-23.63h-.08v23.63h-2.51v-26.98Z"></path>
          <path d="M314.74,252.33h7.75c1.01,0,2.04.08,3.08.25,1.04.17,1.97.51,2.79,1.03.82.52,1.49,1.24,2.01,2.17.52.93.78,2.15.78,3.68,0,1.37-.41,2.57-1.22,3.58-.81,1.02-2.01,1.69-3.61,2.02v.08c.89.08,1.7.29,2.43.63.73.34,1.37.8,1.9,1.37.53.57.94,1.25,1.23,2.04s.44,1.65.44,2.59c0,1.55-.3,2.82-.89,3.79-.6.98-1.34,1.75-2.24,2.31-.9.56-1.88.94-2.93,1.14-1.05.2-2.03.3-2.95.3h-8.59v-26.98ZM317.24,264h5.21c1.29,0,2.34-.16,3.15-.48.81-.32,1.44-.7,1.9-1.16.46-.46.76-.95.91-1.47.15-.52.23-1,.23-1.43,0-.94-.16-1.72-.47-2.34-.32-.62-.74-1.12-1.27-1.49s-1.15-.63-1.86-.78c-.71-.15-1.46-.23-2.24-.23h-5.55v9.38ZM317.24,277.03h5.74c1.47,0,2.65-.18,3.55-.53.9-.36,1.59-.8,2.07-1.33.48-.53.8-1.1.97-1.7.16-.6.25-1.14.25-1.62,0-.99-.19-1.84-.57-2.55-.38-.71-.87-1.29-1.48-1.73-.61-.45-1.3-.77-2.07-.97-.77-.2-1.55-.3-2.34-.3h-6.12v10.75Z"></path>
          <path d="M358.53,267.69l-9.88-15.36h3l8.13,12.8,8.32-12.8h2.81l-9.88,15.36v11.62h-2.51v-11.62Z"></path>
          <path d="M414.66,252.33h7.75c.94,0,1.92.11,2.95.32,1.03.22,1.96.59,2.81,1.13.85.53,1.54,1.26,2.09,2.19.55.93.82,2.09.82,3.49,0,1.22-.22,2.28-.66,3.16s-1.04,1.62-1.79,2.19c-.75.57-1.61,1-2.58,1.28-.98.28-2,.42-3.06.42h-5.81v12.8h-2.51v-26.98ZM417.17,264.22h5.7c.71,0,1.41-.08,2.09-.25.68-.17,1.29-.43,1.82-.8.53-.37.96-.86,1.29-1.47.33-.61.49-1.36.49-2.25s-.17-1.6-.51-2.21c-.34-.61-.79-1.11-1.33-1.51-.55-.39-1.17-.68-1.88-.86s-1.42-.27-2.13-.27h-5.55v9.6Z"></path>
          <path d="M450.71,252.33h7.07c.35,0,.84.01,1.44.04.61.02,1.27.1,1.98.23.71.13,1.43.33,2.17.61.73.28,1.39.69,1.98,1.22.58.53,1.06,1.21,1.44,2.02.38.81.57,1.8.57,2.97,0,1.3-.22,2.36-.66,3.2-.44.84-1,1.52-1.67,2.04-.67.52-1.41.91-2.22,1.16-.81.25-1.58.43-2.32.53l7.83,12.96h-2.85l-7.56-12.8h-4.67v12.8h-2.51v-26.98ZM453.22,264.22h5.32c1.32,0,2.39-.17,3.21-.5.82-.33,1.46-.74,1.92-1.22.46-.48.77-1,.93-1.56.16-.56.25-1.07.25-1.52s-.08-.97-.25-1.52-.47-1.08-.93-1.56c-.46-.48-1.1-.89-1.92-1.22s-1.89-.5-3.21-.5h-5.32v9.6Z"></path>
          <path d="M488.01,252.33h16.46v2.29h-13.95v9.6h13.07v2.29h-13.07v10.52h14.55v2.29h-17.06v-26.98Z"></path>
          <path d="M547.04,275.08c-1.29,1.75-2.79,3.01-4.48,3.77-1.7.76-3.53,1.14-5.51,1.14s-3.93-.35-5.64-1.05c-1.71-.7-3.17-1.68-4.39-2.93-1.22-1.26-2.17-2.76-2.85-4.5-.68-1.74-1.03-3.64-1.03-5.7s.34-3.95,1.03-5.68c.68-1.73,1.63-3.22,2.85-4.48,1.22-1.26,2.68-2.24,4.39-2.95,1.71-.71,3.59-1.07,5.64-1.07,1.82,0,3.53.32,5.11.97,1.58.65,2.97,1.73,4.16,3.26l-2.05,1.72c-.84-1.27-1.91-2.2-3.21-2.78-1.3-.58-2.64-.88-4.01-.88-1.75,0-3.33.31-4.73.92-1.41.61-2.6,1.45-3.59,2.51-.99,1.07-1.75,2.32-2.28,3.77-.53,1.45-.8,3.01-.8,4.69s.27,3.24.8,4.69c.53,1.45,1.29,2.71,2.28,3.77.99,1.07,2.19,1.91,3.59,2.52,1.41.61,2.98.91,4.73.91.68,0,1.39-.08,2.13-.25.73-.16,1.45-.42,2.15-.76.7-.34,1.36-.78,2-1.3.63-.52,1.19-1.15,1.67-1.89l2.05,1.56Z"></path>
          <path d="M566.26,252.33h2.51v26.98h-2.51v-26.98Z"></path>
          <path d="M591.41,274.32c.66,1.14,1.51,2,2.56,2.55,1.05.56,2.25.84,3.59.84.84,0,1.62-.13,2.36-.38.73-.25,1.37-.61,1.92-1.07.55-.46.98-1.01,1.29-1.66.32-.65.47-1.38.47-2.19,0-.94-.2-1.71-.59-2.32-.39-.61-.92-1.11-1.58-1.51-.66-.39-1.4-.73-2.22-1.01-.82-.28-1.67-.56-2.55-.84-.87-.28-1.72-.6-2.55-.95-.82-.36-1.56-.82-2.22-1.39-.66-.57-1.18-1.29-1.58-2.15-.39-.86-.59-1.93-.59-3.2,0-1.19.23-2.25.7-3.18.47-.93,1.1-1.7,1.9-2.32.8-.62,1.72-1.09,2.76-1.41,1.04-.32,2.13-.48,3.27-.48,1.47,0,2.83.26,4.08.78,1.25.52,2.34,1.39,3.25,2.61l-2.17,1.56c-.63-.89-1.37-1.56-2.22-2-.85-.44-1.86-.67-3.02-.67-.81,0-1.58.11-2.32.32-.74.22-1.37.53-1.92.95-.55.42-.98.95-1.31,1.58s-.49,1.38-.49,2.25c0,1.35.34,2.38,1.03,3.11.68.72,1.54,1.3,2.57,1.71,1.03.42,2.14.79,3.34,1.1,1.2.32,2.32.74,3.34,1.28,1.03.53,1.88,1.28,2.56,2.23.68.95,1.03,2.27,1.03,3.94,0,1.22-.23,2.3-.68,3.24-.46.94-1.07,1.73-1.84,2.38-.77.65-1.67,1.14-2.68,1.47-1.01.33-2.07.49-3.15.49-1.77,0-3.41-.31-4.9-.93-1.5-.62-2.77-1.67-3.84-3.14l2.39-1.6Z"></path>
          <path d="M626.46,252.33h2.51v26.98h-2.51v-26.98Z"></path>
          <path d="M649.5,265.82c0-2.06.34-3.95,1.03-5.68.68-1.73,1.63-3.22,2.85-4.48,1.22-1.26,2.68-2.24,4.39-2.95,1.71-.71,3.59-1.07,5.64-1.07s3.93.36,5.64,1.07c1.71.71,3.17,1.7,4.39,2.95,1.22,1.26,2.17,2.75,2.85,4.48.68,1.73,1.03,3.62,1.03,5.68s-.34,3.96-1.03,5.7c-.68,1.74-1.63,3.24-2.85,4.5-1.22,1.26-2.68,2.24-4.39,2.93-1.71.7-3.59,1.05-5.64,1.05s-3.93-.35-5.64-1.05c-1.71-.7-3.17-1.68-4.39-2.93-1.22-1.26-2.17-2.76-2.85-4.5-.68-1.74-1.03-3.64-1.03-5.7ZM652.01,265.82c0,1.68.27,3.24.8,4.69.53,1.45,1.29,2.71,2.28,3.77.99,1.07,2.19,1.91,3.59,2.52s2.98.91,4.73.91,3.32-.3,4.73-.91c1.41-.61,2.6-1.45,3.59-2.52.99-1.07,1.75-2.32,2.28-3.77.53-1.45.8-3.01.8-4.69s-.27-3.24-.8-4.69c-.53-1.45-1.29-2.71-2.28-3.77-.99-1.07-2.19-1.91-3.59-2.51-1.41-.61-2.98-.92-4.73-.92s-3.33.31-4.73.92c-1.41.61-2.6,1.45-3.59,2.51-.99,1.07-1.75,2.32-2.28,3.77-.53,1.45-.8,3.01-.8,4.69Z"></path>
          <path d="M697.81,252.33h3.23l16.38,23.63h.08v-23.63h2.51v26.98h-3.23l-16.38-23.63h-.08v23.63h-2.51v-26.98Z"></path>
        </g>
      </g>
</svg>